<mxfile host="Electron" agent="Mozilla/5.0 (Macintosh; Intel Mac OS X 10_15_7) AppleWebKit/537.36 (KHTML, like Gecko) draw.io/24.7.17 Chrome/128.0.6613.36 Electron/32.0.1 Safari/537.36" version="24.7.17">
  <diagram name="Page-1" id="KoMGqLpwK3aKk_hQyOWJ">
    <mxGraphModel dx="478" dy="285" grid="1" gridSize="10" guides="1" tooltips="1" connect="1" arrows="1" fold="1" page="1" pageScale="1" pageWidth="1200" pageHeight="1600" math="1" shadow="0">
      <root>
        <mxCell id="0" />
        <mxCell id="8U6Jh2LXMtKxCAGfWhvo-11" value="Untitled Layer" parent="0" />
        <mxCell id="8U6Jh2LXMtKxCAGfWhvo-12" value="" style="rounded=0;whiteSpace=wrap;html=1;strokeColor=none;gradientColor=#d6d9ff;gradientDirection=east;" vertex="1" parent="8U6Jh2LXMtKxCAGfWhvo-11">
          <mxGeometry x="360" y="330" width="120" height="140" as="geometry" />
        </mxCell>
        <mxCell id="8U6Jh2LXMtKxCAGfWhvo-13" value="" style="endArrow=classic;html=1;rounded=0;dashed=1;" edge="1" parent="8U6Jh2LXMtKxCAGfWhvo-11">
          <mxGeometry width="50" height="50" relative="1" as="geometry">
            <mxPoint x="389" y="330" as="sourcePoint" />
            <mxPoint x="416" y="356" as="targetPoint" />
          </mxGeometry>
        </mxCell>
        <mxCell id="1" parent="0" />
        <mxCell id="X-OksMlNeAZyQAd-by_X-13" value="$$\tau\text{-space}$$" style="text;html=1;align=center;verticalAlign=middle;resizable=0;points=[];autosize=1;strokeColor=none;fillColor=none;" parent="1" vertex="1">
          <mxGeometry x="330" y="440" width="140" height="30" as="geometry" />
        </mxCell>
        <mxCell id="X-OksMlNeAZyQAd-by_X-14" value="$$\tau_{\bar\tau_1}$$" style="text;html=1;align=center;verticalAlign=middle;resizable=0;points=[];autosize=1;strokeColor=none;fillColor=none;" parent="1" vertex="1">
          <mxGeometry x="420" y="310" width="140" height="30" as="geometry" />
        </mxCell>
        <mxCell id="X-OksMlNeAZyQAd-by_X-19" value="" style="endArrow=classic;html=1;rounded=0;" parent="1" edge="1">
          <mxGeometry width="50" height="50" relative="1" as="geometry">
            <mxPoint x="360" y="400" as="sourcePoint" />
            <mxPoint x="520" y="400" as="targetPoint" />
          </mxGeometry>
        </mxCell>
        <mxCell id="X-OksMlNeAZyQAd-by_X-20" value="" style="endArrow=classic;html=1;rounded=0;" parent="1" edge="1">
          <mxGeometry width="50" height="50" relative="1" as="geometry">
            <mxPoint x="440" y="480" as="sourcePoint" />
            <mxPoint x="440" y="320" as="targetPoint" />
          </mxGeometry>
        </mxCell>
        <mxCell id="8U6Jh2LXMtKxCAGfWhvo-2" value="$$c_{\bar\tau_1}=\tau_{(1)}-\tau_{\bar\tau_1}\le 0$$" style="text;html=1;align=center;verticalAlign=middle;resizable=0;points=[];autosize=1;strokeColor=none;fillColor=none;fontSize=8;" vertex="1" parent="1">
          <mxGeometry x="280" y="310" width="210" height="20" as="geometry" />
        </mxCell>
        <mxCell id="8U6Jh2LXMtKxCAGfWhvo-8" value="" style="endArrow=none;html=1;rounded=0;exitX=1;exitY=1;exitDx=0;exitDy=0;" edge="1" parent="1" source="8U6Jh2LXMtKxCAGfWhvo-12">
          <mxGeometry width="50" height="50" relative="1" as="geometry">
            <mxPoint x="480" y="440" as="sourcePoint" />
            <mxPoint x="480" y="330" as="targetPoint" />
          </mxGeometry>
        </mxCell>
        <mxCell id="X-OksMlNeAZyQAd-by_X-17" value="Untitled Layer" parent="0" />
        <mxCell id="X-OksMlNeAZyQAd-by_X-18" value="Untitled Layer" parent="0" />
      </root>
    </mxGraphModel>
  </diagram>
</mxfile>
